<svg  xmlns="http://www.w3.org/2000/svg" xmlns:xlink="http://www.w3.org/1999/xlink" 
	 width="80px" height="80px" viewBox="0 0 139.941 139.941"
	 xml:space="preserve">
<g>
	<g>
		<path d="M128.714,43.643c-5.832,0-10.573,4.741-10.573,10.573c0,1.297,0.27,2.531,0.701,3.689
			c-7.014,3.699-11.479,9.368-13.215,16.514c-0.76-1.777-1.508-3.539-2.283-5.276c-0.18-0.432-0.354-0.859-0.56-1.292
			c-0.01-0.221,0.006-0.442-0.062-0.664c-4.061-13.903-0.386-24.374,10.246-29.629c1.835,1.529,4.16,2.489,6.729,2.489
			c5.833,0,10.579-4.746,10.579-10.573c0-5.833-4.746-10.573-10.579-10.573c-5.827,0-10.567,4.74-10.567,10.573
			c0,1.297,0.269,2.534,0.695,3.684c-7.541,3.973-12.213,10.188-13.632,18.096c-4.772-13.376-6.396-22.367-0.438-30.673
			c1.023,0.334,2.12,0.566,3.265,0.566c5.827,0,10.567-4.746,10.567-10.573C109.587,4.741,104.847,0,99.02,0
			C93.187,0,88.44,4.741,88.44,10.573c0,2.7,1.05,5.147,2.727,7.019c-8.765,12.464-3.554,26.37,2.479,42.354
			c1.43,3.752,3.074,7.538,4.752,11.366c0.016,0.042,0.047,0.09,0.062,0.122c-6.27-4.404-13.668-5.661-21.663-3.502
			c0.053-0.546,0.132-1.076,0.095-1.632c-0.158-1.593-0.735-3.125-1.647-4.438c-1.087-1.592-2.637-2.792-4.396-3.467
			c0.403-1.84,0.274-3.789-0.438-5.587c-0.588-1.466-1.556-2.782-2.803-3.813c-1.453-1.178-3.207-1.906-5.05-2.096
			c-0.546-1.756-1.592-3.333-3.04-4.53c-1.236-1.01-2.721-1.69-4.298-1.994c-1.901-0.34-3.854-0.103-5.563,0.665
			c-1.015-1.577-2.479-2.856-4.248-3.628c-1.487-0.638-3.014-0.88-4.693-0.73c-1.875,0.195-3.612,0.928-5.039,2.091
			c-1.625-0.854-3.434-1.231-5.369-1.044c-1.592,0.164-3.125,0.73-4.438,1.632c-1.582,1.102-2.777,2.647-3.452,4.4
			c-1.877-0.422-3.839-0.258-5.571,0.438c-1.49,0.583-2.818,1.556-3.844,2.809c-1.189,1.463-1.912,3.206-2.096,5.033
			c-1.756,0.551-3.333,1.598-4.541,3.062c-1.015,1.242-1.685,2.726-1.978,4.287c-0.345,1.896-0.108,3.834,0.675,5.561
			c-1.598,1.01-2.877,2.486-3.655,4.256c-0.617,1.469-0.87,3.082-0.72,4.686c0.19,1.877,0.917,3.617,2.081,5.052
			c-0.844,1.614-1.231,3.48-1.031,5.379c0.171,1.604,0.717,3.091,1.635,4.419c1.102,1.593,2.647,2.795,4.4,3.471
			c-0.408,1.846-0.284,3.797,0.443,5.59c0.588,1.471,1.561,2.795,2.797,3.807c1.442,1.182,3.196,1.909,5.044,2.1
			c0.551,1.75,1.598,3.332,3.045,4.524c1.253,1.022,2.742,1.719,4.293,1.993c1.911,0.348,3.86,0.105,5.568-0.664
			c1.016,1.582,2.484,2.868,4.248,3.628c1.189,0.517,2.452,0.78,3.739,0.78c0.316,0,0.614-0.021,0.944-0.053
			c1.88-0.189,3.623-0.918,5.049-2.088c1.625,0.864,3.515,1.233,5.355,1.033c1.606-0.147,3.144-0.717,4.451-1.624
			c1.582-1.097,2.776-2.647,3.451-4.398c1.867,0.433,3.839,0.264,5.577-0.433c1.489-0.59,2.813-1.571,3.833-2.815
			c1.194-1.461,1.912-3.212,2.102-5.036c1.756-0.554,3.333-1.593,4.535-3.054c1.021-1.239,1.695-2.71,1.988-4.282
			c0.346-1.903,0.104-3.85-0.675-5.568c1.593-1.018,2.879-2.489,3.649-4.271c0.622-1.466,0.87-3.08,0.712-4.672
			c-0.111-1.182-0.517-2.268-1.018-3.28c0.042-0.011,0.089,0,0.121-0.021c11.391-3.644,21.162,1.266,27.701,13.743
			c3.57,11.053,4.63,22.327-2.289,33.823c-4.171,6.93-10.71,11.575-18.394,13.047c-8.643,1.661-18.006-0.728-25.739-6.571
			c-1.192-0.896-2.888-0.664-3.773,0.533c-0.907,1.181-0.664,2.874,0.53,3.771c7.056,5.337,15.356,8.189,23.52,8.189
			c2.178,0,4.355-0.2,6.476-0.606c9.207-1.771,17.018-7.304,22.012-15.572c6.391-10.61,6.829-20.999,4.756-30.939
			c0.011-0.285,0.011-0.575-0.084-0.875c-4.065-13.896-0.385-24.372,10.246-29.632c1.83,1.529,4.161,2.489,6.729,2.489
			c5.832,0,10.573-4.746,10.573-10.573C139.287,48.384,134.547,43.643,128.714,43.643z M119.712,24.295
			c2.854,0,5.179,2.323,5.179,5.173c0,2.851-2.325,5.174-5.179,5.174c-2.848,0-5.168-2.323-5.168-5.174
			C114.544,26.623,116.864,24.295,119.712,24.295z M99.02,5.395c2.848,0,5.168,2.323,5.168,5.174c0,2.85-2.32,5.173-5.168,5.173
			c-2.854,0-5.179-2.323-5.179-5.173C93.841,7.723,96.166,5.395,99.02,5.395z M72.225,79.271c-0.562,1.308-1.809,2.246-3.245,2.426
			l-5.941,0.791l4.503,3.934c1.092,0.949,1.611,2.416,1.345,3.829c-0.113,0.675-0.414,1.308-0.836,1.846
			c-0.788,0.949-1.922,1.487-3.158,1.497l-3.262,0.011l0.619,3.206c0.24,1.203-0.084,2.426-0.846,3.386
			c-0.438,0.543-0.989,0.938-1.653,1.202c-1.311,0.533-2.861,0.312-4-0.564l-4.754-3.67l0.406,5.985
			c0.103,1.466-0.562,2.827-1.756,3.665c-0.562,0.385-1.218,0.617-2.349,0.717c-1.052,0-2.083-0.422-2.845-1.186l-2.325-2.289
			l-1.822,2.7c-0.68,1.018-1.769,1.671-2.984,1.793l-0.401,0.021c-0.562,0-1.094-0.115-1.614-0.337
			c-1.339-0.569-2.252-1.782-2.437-3.238l-0.772-5.97l-3.947,4.557c-0.938,1.076-2.289,1.624-3.828,1.34
			c-0.67-0.111-1.306-0.412-1.846-0.854c-0.941-0.78-1.484-1.915-1.495-3.144l-0.029-3.248l-3.185,0.611
			c-1.176,0.232-2.431-0.084-3.375-0.844c-0.541-0.442-0.944-1.002-1.21-1.655c-0.551-1.351-0.334-2.848,0.562-4.019l2.829-4.335
			h-5.463c-1.334,0-2.586-0.653-3.338-1.74c-0.388-0.58-0.63-1.233-0.712-1.909c-0.113-1.233,0.319-2.426,1.16-3.285l2.307-2.314
			l-2.7-1.825c-1.015-0.686-1.679-1.782-1.788-2.995c-0.076-0.696,0.032-1.382,0.306-2.025c0.57-1.318,1.812-2.246,3.251-2.428
			l5.925-0.773l-4.487-3.937c-1.092-0.962-1.614-2.426-1.35-3.833c0.113-0.681,0.411-1.303,0.859-1.854
			c0.773-0.944,1.912-1.49,3.143-1.495l3.262-0.021L16.329,53.8c-0.242-1.202,0.082-2.429,0.833-3.375
			c0.436-0.533,1.016-0.944,1.667-1.202c1.302-0.53,2.848-0.319,3.997,0.562l4.751,3.649l-0.398-5.973
			c-0.113-1.463,0.562-2.824,1.738-3.654c0.567-0.396,1.231-0.628,2.344-0.725c1.073,0,2.102,0.422,2.872,1.189l2.323,2.273
			l1.814-2.689c0.68-1.015,1.771-1.669,3.385-1.809c0.556,0,1.092,0.114,1.606,0.335c1.326,0.567,2.262,1.809,2.439,3.23
			l0.762,5.978l3.952-4.549c0.952-1.086,2.484-1.598,3.812-1.35c0.696,0.129,1.324,0.422,1.87,0.864
			c0.939,0.773,1.484,1.917,1.495,3.148l0.026,3.257l3.193-0.628c1.182-0.227,2.434,0.082,3.362,0.839
			c0.562,0.453,0.962,1.015,1.226,1.65c0.535,1.334,0.314,2.874-0.567,4.023l-2.85,4.332h5.492c1.339,0,2.587,0.651,3.359,1.754
			c0.382,0.577,0.619,1.226,0.701,1.911c0.113,1.227-0.319,2.426-1.16,3.291l-2.307,2.314l2.706,1.819
			c1.015,0.686,1.674,1.772,1.782,2.979C72.603,77.941,72.494,78.627,72.225,79.271z M128.714,59.395
			c-2.853,0-5.173-2.322-5.173-5.173s2.32-5.173,5.173-5.173c2.854,0,5.174,2.323,5.174,5.173S131.567,59.395,128.714,59.395z"/>
		<path id='flower-three-buds-flower' d="M39.366,53.434c-11.989,0-21.734,9.753-21.734,21.739S27.396,96.91,39.366,96.91c11.994,0,21.745-9.761,21.745-21.737
			C61.111,63.191,51.355,53.434,39.366,53.434z M55.711,75.179c0,0.959-0.124,1.888-0.295,2.805l-2.813-2.815l2.813-2.816
			C55.587,73.28,55.711,74.208,55.711,75.179z M53.33,66.814l-4.535,4.535l-5.74-5.74l4.493-4.487
			C49.929,62.506,51.909,64.455,53.33,66.814z M44.982,75.168l-5.74,5.737l-5.735-5.737l5.735-5.74L44.982,75.168z M41.932,59.092
			l-2.694,2.689l-2.653-2.666c0.907-0.158,1.838-0.282,2.792-0.282C40.247,58.833,41.088,58.962,41.932,59.092z M31.023,61.204
			l4.385,4.396l-5.734,5.74l-4.369-4.369C26.707,64.6,28.658,62.625,31.023,61.204z M23.026,75.179c0-0.887,0.124-1.73,0.274-2.584
			l2.571,2.573l-2.576,2.584C23.156,76.897,23.026,76.054,23.026,75.179z M25.299,83.353l4.385-4.377l5.735,5.737l-4.4,4.413
			C28.643,87.719,26.691,85.735,25.299,83.353z M36.553,91.23l2.679-2.689l2.722,2.711c-0.844,0.137-1.696,0.269-2.587,0.269
			C38.398,91.516,37.465,91.389,36.553,91.23z M47.563,89.227l-4.509-4.514l5.74-5.732l4.541,4.54
			C51.928,85.884,49.945,87.845,47.563,89.227z"/>
	</g>
</g>
</svg>